# xmcd
#
# Track frame offsets:
#	150
#	13479
#	61540
#	116886
#	136199
#	162175
#
# Disc length: 2599 seconds
#
# Revision: 2
# Processed by: cddbd v1.5.1PL2 Copyright (c) Steve Scherf et al.
# Submitted via: EasyCDDAExtractor 8.0.2.1
#
DISCID=4a0a2506
DTITLE=Dio - Forum Montreal 06-09-85 Disc 2
DYEAR=1985
DGENRE=Hard Rock
TTITLE0=Guitar Solo
TTITLE1=Sacred Heart
TTITLE2=Rock and Roll Children - Long Live Rock and Roll - Man On The Silver Mount
TTITLE2=ain - Rock and Roll Children Reprise
TTITLE3=Stand Up And Shout
TTITLE4=Rainbow In The Dark
TTITLE5=We Rock
EXTD=
EXTT0=
EXTT1=
EXTT2=
EXTT3=
EXTT4=
EXTT5=
PLAYORDER=
